<svg height="80" viewBox="0 0 187 80" width="187" xmlns="http://www.w3.org/2000/svg"><path d="m237.229091 152.238986c-.761714.277654-1.930856.417115-3.506161.417115h-1.946039c-1.475346 0-2.438243-.129318-2.886161-.389223-.446653-.257369-.719959-.621236-.821183-1.089065-.099959-.466561-.150572-1.627892-.150572-3.485261v-13.449129c0-2.133756.065796-3.485261.197388-4.054517.134122-.567987.396041-.955942.784489-1.163866.392245-.209192 1.215958-.313154 2.476202-.313154h1.136244v-.872266h-12.308888v.872266h.568122c1.298203 0 2.139631.114104 2.524284.341046.382122.226941.635183.63645.754122 1.232329.120204.593344.182204 1.911886.182204 3.958162v12.597148c0 2.147702-.062 3.514421-.182204 4.101426-.118939.587005-.388449 1.019334-.809796 1.296989-.423877.277654-1.18306.417115-2.278814.417115h-.757918v.870999h21.779697l.188531-7.557528h-.888244c-.566857 2.033598-1.194449 3.516957-1.881509 4.451347-.685796.93439-1.410815 1.540412-2.173794 1.818067zm-37.780746-9.035816 4.517139-10.947702 4.537384 10.947702zm14.878723 4.679556-8.566116-20.401902h-.736408l-7.448851 17.825674c-.54155 1.275435-.843958 2.008241-.905958 2.197147-.783224 2.008241-1.451305 3.322979-2.004244 3.949287-.555469.625039-1.399427 1.026941-2.53314 1.203169v.870999h7.618402v-.870999c-.818653 0-1.491795-.200317-2.014366-.595879-.523836-.399366-.784489-.982567-.784489-1.753407 0-.718859.490938-2.260539 1.47408-4.621237l.66302-1.630427h9.735258l1.966284 4.754358c.580775 1.376862.869265 2.204754.869265 2.482409 0 .543898-.217633.905229-.650367 1.089065-.435265.182567-1.271632.275118-2.50657.275118v.870999h10.078156v-.870999c-.897102-.090015-1.567713-.306814-2.015631-.654199-.445388-.346118-.802204-.822821-1.067918-1.428843zm-69.186885 3.835182c-1.437386.612361-3.270813.919176-5.501546.919176-1.524693 0-2.524284-.148336-2.994977-.446276-.473225-.295404-.756653-.810142-.851551-1.54168-.094898-.732805-.141714-2.368304-.141714-4.906497v-17.163867c.983142-.060856 1.952366-.095087 2.911467-.095087 1.990325 0 3.622569.193978 4.895466.57813 1.274162.38542 2.434447 1.111886 3.479589 2.17813 1.045142 1.067511 1.848611 2.455784 2.410406 4.158478.561795 1.70523.840163 3.64374.840163 5.815531 0 2.790491-.480816 5.086529-1.443714 6.885579-.966693 1.800317-2.166202 3.006022-3.603589 3.618383zm-48.3055534-27.406656c-1.6448967-2.071632-2.467345-5.170206-2.467345-9.300792 0-4.065928.8224483-7.137877 2.467345-9.21458 1.6448967-2.076704 4.0110174-3.115056 7.0996274-3.115056 3.137956 0 5.533179 1.063708 7.183137 3.189857 1.651223 2.129953 2.476202 5.187956 2.476202 9.179081 0 4.103962-.837632 7.189858-2.514161 9.26149-1.67653 2.0729-3.957875 3.106181-6.844036 3.106181-3.288528 0-5.7558727-1.033281-7.4007694-3.106181zm-21.4127587-9.678605c.5035915-.025357.9831421-.038035 1.4373867-.038035 2.8735079 0 4.8815471.50206 6.0215871 1.50618 1.1400399 1.004121 1.7106925 2.567354 1.7106925 4.688431 0 2.071633-.5048568 3.623455-1.5133049 4.659271-1.0084482 1.035817-2.5204879 1.554359-4.5373842 1.554359-1.1337134 0-1.8928965-.169889-2.2775493-.512203-.3846527-.341046-.6212648-.840571-.7085708-1.496038-.0873061-.656736-.1328571-2.203487-.1328571-4.641522zm0-11.707132c.5175098-.038035 1.0211013-.057052 1.5120397-.057052 1.8903658 0 3.226528.199049 4.0084866.597147.7806933.398098 1.3677948.964818 1.7575088 1.695087.3909793.732805.5871016 1.768622.5871016 3.107449 0 1.919493-.4985302 3.307765-1.4943254 4.167353-.9957951.85832-2.8545283 1.288114-5.5761997 1.288114-.2151018 0-.4795506-.006339-.7946116-.020285zm63.6499091 24.649128c-1.043877 0-2.931712.065928-5.650853.193978.72249-.42599 1.36906-.93439 1.935917-1.46561 1.462693-1.376862 2.191509-3.164501 2.191509-5.361648 0-1.38954-.301143-2.614263-.907224-3.675436-.603551-1.061173-1.408285-1.891601-2.411672-2.491284-.999591-.599683-2.603998-1.392076-4.81069-2.377179-2.305386-1.035816-3.900935-1.970206-4.782853-2.804437-.894571-.820285-1.342489-1.824406-1.342489-3.012361 0-.983836.358081-1.889065 1.067918-2.718225.713632-.826625 1.830896-1.239937 3.356854-1.239937 1.600611 0 3.008896.562916 4.226119 1.684944 1.215958 1.1271 2.062448 2.666245 2.541998 4.622504h.831306v-6.723296h-.831306c-.075918.807607-.402367 1.55943-.981877 2.252932-1.009713-1.111886-1.992855-1.843423-2.949426-2.19588-.959101-.354992-1.980202-.532488-3.063303-.532488-1.940979 0-3.545385.611094-4.811956 1.828209-1.26657 1.219652-1.900488 2.743582-1.900488 4.575595 0 1.199366.293551 2.330269.879387 3.390174.585836 1.061173 1.403223 1.923296 2.448365 2.586371 1.046408.663074 2.597672 1.43645 4.651262 2.320127 2.305386.985103 3.893344 1.908082 4.763874 2.766402.869264.872267 1.305795 1.951189 1.305795 3.239303 0 1.276704-.497265 2.427892-1.484203 3.457369-.990734 1.028209-2.386366 1.542948-4.189426 1.542948-4.007221 0-6.546688-2.689065-7.617136-8.069731h-.945183l-.049347 8.471633h-12.182358c2.224406-.579398 4.137548-1.634232 5.735628-3.168305 2.563508-2.460855 3.846528-5.681141 3.846528-9.660855 0-4.102695-1.339958-7.343265-4.017344-9.717908-2.678651-2.373376-6.015261-3.560064-10.011094-3.560064-3.9566094 0-7.2577904 1.200634-9.9048088 3.599366-2.6482836 2.4-3.9717927 5.582251-3.9717927 9.548019 0 4.065927 1.3045295 7.330587 3.9135887 9.791442 1.6246518 1.534073 3.5352625 2.588907 5.726771 3.168305h-6.1341992l-9.3404825 21.25515-9.3721151-21.201902h2.707753c2.5091001 0 4.5095475-.180031 6.0026075-.540095 1.4943254-.360063 2.7191407-1.123296 3.6769767-2.292234.9591013-1.167671 1.4373867-2.558479 1.4373867-4.176228 0-1.85737-.7060403-3.401585-2.1168555-4.641522-1.4120805-1.237401-3.5732217-1.963867-6.4846888-2.17813 2.4192634-.353724 4.2311803-1.035816 5.4344855-2.046275 1.2033052-1.01046 1.8055904-2.349287 1.8055904-4.016482 0-4.040571-3.5036299-6.06149-10.5096244-6.06149l-4.8030982.15214-4.2147314.112836v.872267h.4896731c1.2982031 0 2.139631.112836 2.5242837.341045.3833875.226942.6364485.645325.7566525 1.25008.1189387.606022.178408 1.951188.178408 4.034231v12.50206c0 2.147702-.0556734 3.51569-.1695509 4.101427-.1138774.588272-.3821221 1.020602-.8034687 1.298256-.4226119.278923-1.1805297.417116-2.2775493.417116h-.983142v.870998l.0025306.819018h.2151018c1.2969378 0 2.1383657.114104 2.5230185.341046.385918.228209.6364484.637718.7579177 1.232329.1176734.593344.1784081 1.911886.1784081 3.956894v11.178447c0 2.121078-.074653 3.572742-.2264897 4.35626-.1518366.782251-.5706526 1.442789-1.2577133 1.980349-.6870606.536291-1.5791008.835499-2.674855.89889v.869731h9.168401v-.869731c-1.1830603-.076069-2.1042025-.394294-2.7583652-.95721-.6566934-.561649-1.0476727-1.21458-1.1729379-1.960064-.1265305-.745483-.1897957-2.146434-.1897957-4.205388v-15.041521l10.2274613 23.033914h.8895095l10.151543-23.033914v16.348653c0 2.147702-.0594693 3.513153-.1796733 4.101426-.1189387.587005-.389714 1.019334-.8123259 1.296989-.4226119.277654-1.1754684.417115-2.2585696.417115h-.9084891v.869731h12.2506839v-.869731h-1.134978c-1.1590199 0-1.9435091-.150871-2.3522026-.45515-.4112242-.303011-.6655505-.767037-.7667749-1.392076-.1012244-.62504-.1505713-1.947385-.1505713-3.968304v-12.598416c0-2.132488.0670611-3.485261.1973876-4.051981.1341223-.569255.3947752-.95721.7857545-1.165134.3897139-.209192 1.2159582-.313154 2.4762017-.313154h.945183l3.652936-.006339v.006339c1.237469 0 2.044733.124247 2.429386.368938.385918.245959.630122.679556.737673 1.296989.107551.619968.160694 1.906815.160694 3.864342v12.598416c0 2.147702-.050612 3.482725-.150572 4.006339-.101224.523613-.337836.95721-.709836 1.295721-.371999.343581-1.193183.51347-2.467345.51347h-.528897v.869731h21.230554l.549143-7.992393h-.908489c-.452979 1.894136-1.072979 3.3813-1.859999 4.46149-.788285 1.08019-1.618325 1.79271-2.48759 2.140095-.869264.347385-1.978937.521077-3.327752.521077h-1.909346c-1.713223 0-2.764691-.267511-3.156936-.805071-.390979-.536291-.585836-2.326466-.585836-5.370523v-6.080507h2.817834c1.095755 0 1.872652.070998 2.333223.218067.461836.144532.809795.460221 1.050203.947068.239143.48431.359347 1.441521.359347 2.869096h.888244v-8.788589h-.888244c0 1.262757-.079714 2.112203-.236612 2.547068-.158163.436133-.485877.761965-.981877.976228-.499795.214263-1.372856.320761-2.620447.320761h-2.721671v-10.777813h3.555507c1.789142 0 3.086079.098891 3.893344.292868.807265.196514 1.501917.670682 2.089019 1.421236.585836.750555 1.081836 2.024723 1.484203 3.816165h.888244l-.603551-6.402535h-1.886569c.204979-1.059905.555468-2.126149.966693-2.713154 1.644896 1.891601 3.613711 3.372425 5.964648 3.712203 0 0 1.079305.068463 1.108407.068463.717428.062123 1.222285.190174 1.49306.344849.383388.22187.636449.631379.755388 1.231062.118938.599683.179673 1.923296.179673 3.968304v12.387956c0 2.147702-.060735 3.514421-.179673 4.101426-.118939.588273-.389714 1.020602-.811061 1.299525-.422612.276386-1.18306.417115-2.28008.417115h-1.05906v.869731h11.36244c2.130774 0 3.781997-.065927 4.954935-.199049 1.170407-.131854 2.409141-.467829 3.71367-1.004121 1.30453-.536291 2.452161-1.31981 3.440365-2.348019.989468-1.030745 1.767631-2.32393 2.335753-3.884627.566857-1.55943.84902-3.279874.84902-5.160064 0-2.602852-.518775-4.897623-1.558856-6.888114-1.03755-1.986688-2.625508-3.563867-4.753751-4.725198-2.129509-1.162599-5.09918-1.743265-8.905218-1.743265zm56.823588-1.224722c-.642775.358795-1.575305.583201-2.79759.671949v.869731h9.565707v-.869731c-1.361468 0-2.381304-.195246-3.062038-.588273-.680734-.391759-1.093224-.819017-1.241265-1.289381-.141714-.464026-.215101-1.437718-.215101-2.914739v-17.825674l18.130557 24.07607h.813591v-21.253883c0-1.100475.086041-1.877654.254326-2.339144.169551-.461489.568122-.855784 1.193183-1.184152.62253-.328368 1.476611-.536291 2.560978-.625039v-.870999h-9.301258v.870999c1.007182 0 1.870121.133122 2.588814.39683.718693.266244 1.193183.626307 1.425999 1.08019.235346.455151.351755 1.251347.351755 2.387322v15.36355l-15.181131-20.098891h-7.561464v.870999c1.372856 0 2.25857.093819 2.655876.283993.39604.188907.685795.618701.869264 1.286846.180939.670682.273306 1.990492.273306 3.960698v13.620285c0 1.551823-.060734 2.538193-.179673 2.955309-.120204.415848-.501061.803804-1.143836 1.165135zm-42.349763-1.18542c-.096163-.631379-.142979-1.951189-.142979-3.95943v-18.128684h4.122364c1.399427 0 2.387631.08748 2.967141.256101.579509.171157 1.122325.631379 1.627182 1.383201.503591.751823.900897 1.97401 1.190652 3.666561h.812326l-.131592-6.175594h-24.879694l-.132858 6.175594h.869265c.265714-1.62916.645306-2.841204 1.143836-3.637401.49853-.794928 1.031224-1.271632 1.59808-1.43011.566857-.158479 1.67653-.238352 3.327753-.238352h3.799711v18.128684c0 2.146435-.059469 3.51569-.179673 4.101427-.120204.587004-.39098 1.019334-.812326 1.299524-.422612.277655-1.181795.41458-2.278815.41458l.026572.872266h9.983257c.608612.053249 1.055265.147069 1.303264.290333.388449.226942.64151.637718.754122 1.231062.115143.592076.170817 1.911886.170817 3.958162v13.468146c0 2.147702-.055674 3.514421-.170817 4.101426-.112612.587005-.379591 1.019334-.802203 1.296989-.422612.276386-1.18053.417115-2.277549.417115h-.756653v.870999h11.720522v-.870999h-.755388c-1.160284 0-1.943508-.152139-2.353467-.45515s-.66302-.767037-.755387-1.392076c-.096163-.62504-.14298-1.947385-.14298-3.968304v-13.468146c0-2.133756.065796-3.485262.198653-4.054517.131592-.566719.394775-.955943.784489-1.163867.39098-.209192 1.217224-.313154 2.477468-.313154h.546612v-.870998h-10.712074c-.623795-.065927-1.090693-.195246-1.374121-.401902-.416285-.304279-.671877-.772107-.76551-1.403486zm98.474903-19.754041c-.126531.140729-.313796.25103-.563061.333439-.250531.079873-.466898.101426-.651632.062123-.184735-.04057-.342898-.121711-.47449-.244691-.131592-.121711-.244204-.273851-.336571-.453883-.092367-.182567-.170816-.36767-.232816-.564183l-.423877-1.310935 2.369916-.765769.423877 1.310935c.062.19271.107551.391759.139184.592076.029102.201585.026571.389224-.007592.565452-.034163.177496-.116408.335974-.242938.475436zm.236612-4.22821-7.356484 2.384786.323918.99905 3.240446-1.049763.359347 1.114422-2.636896 2.922345.403632 1.25008 2.681182-3.179715c.117673.26878.27204.495721.465632.682092.194857.187638.406163.329635.632653.427258.227755.098891.463101.154675.707305.168621.245469.012679.485877-.020285.722489-.096355.227755-.074802.454245-.186371.678204-.333439.222694-.149603.404898-.344849.544081-.585737.141714-.240887.22649-.536291.255592-.881141.030367-.348653-.031633-.758161-.184735-1.228526zm-9.440442-9.6354988 1.825835-1.4110935 2.406611 3.1277337.779428-.6022187-3.051916-3.9581616-6.119016 4.7353407 3.170855 4.1141046.778162-.6034865-2.529345-3.2824089 1.961223-1.5163233 2.242121 2.9083994.779428-.6022187zm-10.881624-3.9239303 3.699752-5.6557844 2.082692 1.3679873.53902-.8240888-5.040975-3.3115689-.53902.8240887 2.081427 1.3679874-3.699753 5.6557844zm-12.949133-11.8947702.020245.0050713 2.850733 7.1404121 1.303264.281458 1.644897-7.5676704-1.023632-.2231379-1.352611 6.222504-.021511-.0050713-2.808977-7.1315373-1.345019-.2928684-1.646162 7.5676703 1.026162.2244057zm-9.108931 5.9068146-.14298-.9736926-4.097058.6047544-.360612-2.4557845 3.62763-.5375594-.141714-.9762282-3.628895.5388273-.337837-2.2846276 3.899671-.5768621-.14298-.9736926-4.93722.7315372 1.129917 7.6640254zm-18.462067 3.4383518c.37706.3461173.804734.6110935 1.283019.7949287.479551.1838352.990734.2700475 1.534815.2586371.542816-.0114105 1.088162-.1546751 1.63604-.429794.397305-.1990491.721224-.4259905.971754-.6782884.253061-.252298.452979-.4982568.602285-.7416799.148041-.2396196.251796-.4614897.316326-.659271.063266-.200317.10249-.3486529.120204-.4462757l-1.090693-.200317c-.062.3980983-.199918.755626-.418816 1.0675119-.218897.3144215-.526367.5692551-.922407.7683043-.403632.2028526-.800938.3118859-1.191917.3283676-.389714.0177496-.757918-.0418383-1.104612-.1800317-.342898-.1369255-.656693-.3372424-.936326-.6060222-.282163-.266244-.512448-.5819334-.695917-.9470681-.193592-.3930269-.317592-.7898574-.363143-1.1955626-.046816-.4057052-.022775-.7911252.075918-1.1575277.096163-.3676704.265714-.7023772.508653-1.0091918.241673-.3042789.558-.555309.948979-.7505547.320122-.1584786.661754-.2472266 1.031223-.2599049.368204-.0126783.712367.0583201 1.036285.2142631l.482082-.9889065c-.463102-.2256735-.957836-.3144216-1.484203-.2713154-.527633.044374-1.019836.1812995-1.475346.4107766-.535224.2675119-.978081.6034865-1.327305 1.0079239-.351755.4057052-.604816.851981-.755387 1.3400951-.150572.4881141-.198653 1.0015848-.150572 1.5429477.051878.5438986.210041 1.0801902.478286 1.6139461.218898.437401.513714.8304279.890775 1.1740095zm-2.969672 29.9765449c0 4.103962-.838897 7.189858-2.515426 9.262758-1.517101 1.873851-3.533997 2.891917-6.040567 3.069413-.098694-.002535-.193592-.016481-.293551-.016481-.247999 0-.483346.031695-.72755.044374-3.177181-.04691-5.574934-1.073851-7.183137-3.097306-1.643632-2.0729-2.467345-5.171474-2.467345-9.300793 0-4.065927.823713-7.137876 2.467345-9.215847 1.644896-2.076704 4.011017-3.115056 7.099627-3.115056 1.138774 0 2.176325.144533 3.120242.424723-1.684121 3.405388-2.798855 7.150554-3.217671 11.116323-.025306.235816.14551.448811.379592.469097.234081.025356.446653-.140729.469428-.376545.411224-3.899842 1.517101-7.575278 3.180977-10.917275 1.290611.529953 2.377508 1.350238 3.251834 2.474802 1.649958 2.127417 2.476202 5.186688 2.476202 9.177813zm20.486556-30.1210774c-11.487706.8405706-21.303943 7.5537243-26.489163 17.1930274-1.15902-.251031-2.378774-.389224-3.678242-.389224-3.957875 0-7.259056 1.200634-9.906074 3.599366-2.647018 2.4-3.969262 5.582251-3.969262 9.548019 0 4.065927 1.304529 7.330587 3.912323 9.79271 1.847346 1.741997 4.067956 2.856419 6.647913 3.366086-.77057.253566-1.524692.555309-2.24212.958478-1.942244 1.085262-3.454283 2.748653-4.537384 4.991443-1.085632 2.240253-1.627183 4.63011-1.627183 7.167036 0 3.864342 1.175469 6.971791 3.52514 9.322345 2.350937 2.346752 5.380078 3.522029 9.084891 3.522029 3.50363 0 6.383464-1.275436 8.640769-3.82504.590897.783519 1.002121 1.686213 1.228611 2.708083h.812326v-8.997782h-.812326c-.150571 1.490967-.646571 3.033915-1.485468 4.631379-.837632 1.598732-1.973876 2.730904-3.412528 3.400317-1.436121.670682-2.84061 1.004121-4.215997 1.004121-2.569834 0-4.718323-1.026942-6.445464-3.078289-1.727142-2.051347-2.59008-5.00412-2.59008-8.855784 0-4.065927.790816-7.191125 2.371182-9.37813 1.582897-2.183201 3.716201-3.27607 6.401179-3.27607 2.194039 0 4.161588.675753 5.908975 2.028526 1.744855 1.34897 2.900079 3.756577 3.468201 7.215214h.812326l-.22649-9.736925h-.83257c-.112613 1.151188-.440327 2.261806-.981877 3.33439-.769306-.959747-1.932121-1.833281-3.488446-2.623138-.556735-.282726-1.143836-.495721-1.744856-.677021 2.287671-.569255 4.25269-1.632964 5.884934-3.201268 2.564773-2.462123 3.847793-5.682409 3.847793-9.660856 0-4.103962-1.339958-7.344532-4.017344-9.717908-1.590488-1.409825-3.418854-2.389857-5.472445-2.964184 5.078935-9.2843101 14.580111-15.7362911 25.685694-16.5464337 8.514239-.6250397 16.757702 2.1147385 23.215819 7.7020602 6.458117 5.5949287 10.356522 13.3743265 10.975257 21.9030115.688326 9.470681-2.817835 18.682725-9.615054 25.303328-.169551.162282-.173347.437401-.010122.606022.168285.168621.435264.17496.606081.008875 6.979423-6.791759 10.577951-16.263709 9.874441-25.981617-.637714-8.756894-4.64367-16.7442154-11.271338-22.4862122-6.63526-5.7394612-15.096356-8.5515056-23.832022-7.9099842z" fill="#181818" fill-rule="evenodd" transform="translate(-67 -74)"/></svg>