<svg height="40" viewBox="0 0 40 40" width="40" xmlns="http://www.w3.org/2000/svg"><g fill="none" fill-rule="evenodd"><path d="m20.023375 23.85975c2.12375 0 3.84625-1.7175 3.84625-3.8375 0-2.11875-1.7225-3.83625-3.84625-3.83625s-3.84625 1.7175-3.84625 3.83625c0 2.12 1.7225 3.8375 3.84625 3.8375" fill="#0C857B"/><g fill="#0C857B"><path d="m24.45225 16.0925h2.70375c.30875 0 .56-.25.56-.5575v-2.69875c0-.3075-.25125-.5575-.56-.5575h-2.70375c-.30875 0-.56.25-.56.5575v2.69875c0 .3075.25125.5575.56.5575"/><path d="m30 27.6275c0 1.31-1.06375 2.3725-2.3775 2.3725h-15.245c-1.3125 0-2.3775-1.0625-2.3775-2.3725v-15.25625c0-1.31 1.065-2.37125 2.3775-2.37125h15.245c1.31375 0 2.3775 1.06125 2.3775 2.37125zm-10-27.6275c-11.04625 0-20 8.95375-20 20 0 11.045 8.95375 20 20 20s20-8.955 20-20c0-11.04625-8.95375-20-20-20z"/><path d="m26.10725 20.02275c0 3.34625-2.72875 6.07-6.08375 6.07s-6.08375-2.72375-6.08375-6.07c0-.555.075-1.09375.21625-1.605h-1.87125v8.6975c0 .30875.25.55875.55875.55875h14.35875c.31 0 .56-.25.56-.55875v-8.6975h-1.87125c.14125.51125.21625 1.05.21625 1.605"/></g></g></svg>