<svg height="40" viewBox="0 0 40 40" width="40" xmlns="http://www.w3.org/2000/svg"><path d="m134 29.98125h-4.14375v-6.485c0-1.54625-.0275-3.535-2.15375-3.535-2.15625 0-2.485 1.685-2.485 3.425v6.595h-4.14v-13.335h3.9725v1.82375h.0575c.5525-1.04875 1.905-2.155 3.92125-2.155 4.19625 0 4.97125 2.76125 4.97125 6.3525zm-17.595-15.15625c-1.33125 0-2.405-1.0775-2.405-2.40375s1.07375-2.40375 2.405-2.40375c1.325 0 2.40125 1.0775 2.40125 2.40375s-1.07625 2.40375-2.40125 2.40375zm2.0725 15.15625h-4.14875v-13.335h4.14875zm5.5225-29.98125c-11.04625 0-20 8.95375-20 20 0 11.045 8.95375 20 20 20s20-8.955 20-20c0-11.04625-8.95375-20-20-20z" fill="#0C857B" fill-rule="evenodd" transform="translate(-104)"/></svg>