<svg height="40" viewBox="0 0 40 40" width="40" xmlns="http://www.w3.org/2000/svg"><path d="m79.9525 15.92125c.0075.17625.0125.3525.0125.53125 0 5.42125-4.1275 11.67375-11.675 11.67375-2.3175 0-4.47375-.67875-6.29-1.8425.32125.0375.6475.05625.97875.05625 1.9225 0 3.69125-.655 5.09625-1.75625-1.79625-.0325-3.31125-1.21875-3.83375-2.84875.25125.0475.5075.0725.7725.0725.37375 0 .73625-.05 1.08125-.14375-1.8775-.37625-3.29125-2.035-3.29125-4.0225v-.0525c.5525.3075 1.18625.4925 1.85875.51375-1.10125-.73625-1.82625-1.9925-1.82625-3.415 0-.7525.2025-1.4575.55625-2.06375 2.02375 2.4825 5.0475 4.11625 8.4575 4.2875-.07-.3-.10625-.61375-.10625-.935 0-2.26625 1.8375-4.10375 4.1025-4.10375 1.18125 0 2.2475.49875 2.995 1.29625.935-.18375 1.81375-.525 2.60625-.995-.30625.9575-.9575 1.76125-1.80375 2.27.83-.1 1.62-.32 2.35625-.64625-.55.8225-1.24625 1.545-2.0475 2.12375m-7.9525-15.92125c-11.04625 0-20 8.95375-20 20 0 11.045 8.95375 20 20 20s20-8.955 20-20c0-11.04625-8.95375-20-20-20" fill="#0C857B" fill-rule="evenodd" transform="translate(-52)"/></svg>