<svg height="40" viewBox="0 0 40 40" width="40" xmlns="http://www.w3.org/2000/svg"><g fill="#0C857B" fill-rule="evenodd"><path d="m30 20.755c0 1.61875-.2 3.2375-.2 3.2375s-.195 1.3775-.795 1.985c-.76.79625-1.6125.8-2.00375.84625-2.79875.2025-7.00125.20875-7.00125.20875s-5.2-.0475-6.8-.2c-.445-.08375-1.445-.05875-2.205-.855-.6-.6075-.795-1.985-.795-1.985s-.2-1.61875-.2-3.2375v-1.5175c0-1.61875.2-3.23625.2-3.23625s.195-1.37875.795-1.98625c.76-.79625 1.6125-.8 2.00375-.84625 2.79875-.2025 6.9975-.2025 6.9975-.2025h.0075s4.19875 0 6.9975.2025c.39125.04625 1.24375.05 2.00375.84625.6.6075.795 1.98625.795 1.98625s.2 1.6175.2 3.23625zm-10-20.755c-11.04625 0-20 8.95375-20 20 0 11.045 8.95375 20 20 20s20-8.955 20-20c0-11.04625-8.95375-20-20-20z"/><path d="m17.93525 22.59375 5.40375-2.8-5.405-2.82z"/></g></svg>